<svg xmlns="http://www.w3.org/2000/svg" width="95" height="98" viewBox="0 0 95 98" fill="none">
  <path d="M 29.71 97.521 C 29.339 97.109 29.267 95.975 29.199 89.447 C 29.121 81.954 29.112 81.844 28.509 81.239 C 27.917 80.645 27.704 80.622 21.666 80.492 C 15.513 80.358 15.415 80.347 13.907 79.604 C 11.611 78.472 9.841 76.729 8.737 74.515 L 7.786 72.608 L 7.786 65.797 L 7.786 58.986 L 5.975 58.797 C 2.984 58.486 1.536 57.653 0.515 55.654 C -0.52 53.629 -0.263 52.958 3.799 47.081 C 7.37 41.914 8.373 40.305 8.831 39.01 C 9.014 38.491 9.269 35.643 9.398 32.68 C 9.667 26.509 10.26 23.517 12.032 19.392 C 13.631 15.669 15.408 13.03 18.245 10.167 C 24.661 3.691 32.522 0.435 42.695 0.038 C 52.644 -0.35 61.204 2.22 68.42 7.762 C 70.482 9.346 73.892 12.74 75.255 14.565 L 76.01 15.575 L 80.382 15.575 C 86.555 15.575 88.797 16.342 91.729 19.455 C 93.302 21.124 94.318 23.091 94.728 25.262 C 95.107 27.268 95.083 48.008 94.699 49.838 C 94.246 52.003 93.223 53.951 91.64 55.668 C 88.988 58.543 86.376 59.481 81.02 59.481 L 77.62 59.481 L 75.911 61.642 C 73.715 64.419 71.781 67.767 71.092 69.986 C 70.161 72.987 70.349 76.176 72.351 91.36 C 72.892 95.463 72.987 96.857 72.762 97.354 L 72.469 98 L 51.306 98 C 31.362 98 30.117 97.972 29.71 97.521 Z M 68.839 93.623 C 68.661 92.858 67.504 83.28 67.078 79.055 C 66.901 77.302 66.813 74.514 66.881 72.86 C 66.986 70.31 67.133 69.527 67.84 67.723 C 68.713 65.498 69.968 63.284 71.711 60.896 L 72.743 59.481 L 71.191 59.488 L 69.64 59.496 L 61.321 65.411 C 56.746 68.664 52.761 71.342 52.466 71.362 C 51.482 71.427 51.128 71.307 50.654 70.749 C 50.241 70.263 50.185 69.551 50.185 64.839 L 50.185 59.481 L 45.781 59.481 C 40.981 59.481 39.301 59.156 36.947 57.771 C 34.367 56.253 31.966 52.807 31.404 49.815 C 31.248 48.983 31.132 43.637 31.132 37.279 C 31.132 25.471 31.219 24.51 32.506 21.976 C 33.295 20.424 35.702 17.958 37.258 17.108 C 39.998 15.611 40.432 15.576 56.48 15.565 L 71.25 15.555 L 68.911 13.296 C 63.971 8.524 59.16 5.978 52.26 4.484 C 48.266 3.619 40.542 3.624 36.517 4.495 C 26.421 6.679 18.822 12.709 15.377 21.27 C 13.93 24.866 13.394 27.778 13.153 33.353 C 12.9 39.198 12.651 40.361 11.11 42.866 C 10.18 44.378 6.336 50.072 4.489 52.672 C 3.241 54.429 3.724 54.748 8.253 55.163 C 11.726 55.48 11.543 54.984 11.543 64.099 C 11.543 69.8 11.631 71.83 11.905 72.487 C 12.442 73.772 13.589 75.022 14.993 75.85 C 16.228 76.579 16.296 76.587 22.289 76.723 C 28.076 76.854 28.394 76.889 29.639 77.532 C 31.418 78.451 32.405 79.75 32.751 81.627 C 32.908 82.477 32.998 85.605 32.954 88.691 L 32.877 94.229 L 50.928 94.229 L 68.979 94.229 L 68.839 93.623 Z M 61.395 60.846 L 68.63 55.746 L 76.783 55.661 L 84.936 55.576 L 86.46 54.824 C 88.113 54.009 89.284 52.84 90.234 51.056 C 90.837 49.923 90.839 49.872 90.839 37.528 L 90.839 25.138 L 90.177 23.837 C 89.382 22.275 87.864 20.84 86.176 20.057 C 84.941 19.484 84.838 19.481 63.065 19.481 C 41.395 19.481 41.184 19.486 39.974 20.049 C 38.261 20.844 36.855 22.164 36.013 23.767 L 35.292 25.138 L 35.292 37.528 L 35.292 49.919 L 36.013 51.29 C 36.856 52.895 38.263 54.215 39.974 55.006 C 41.07 55.513 41.789 55.58 46.965 55.662 C 54.501 55.781 53.942 55.32 53.942 61.414 C 53.942 63.907 53.991 65.946 54.05 65.946 C 54.11 65.946 57.415 63.651 61.395 60.846 Z M 59.484 49.022 C 59.24 48.751 59.04 48.297 59.04 48.012 C 59.04 47.728 60.562 42.889 62.422 37.259 C 64.675 30.437 65.983 26.866 66.342 26.552 C 67.486 25.553 69.237 26.298 69.237 27.783 C 69.237 28.726 62.752 48.516 62.241 49.135 C 61.782 49.689 60.021 49.617 59.484 49.022 Z M 71.921 47.686 C 71.088 47.424 70.579 46.721 70.579 45.834 C 70.579 45.051 71.004 44.477 73.774 41.518 L 76.969 38.105 L 73.975 34.912 C 72.329 33.155 70.872 31.479 70.738 31.187 C 70.201 30.013 71.682 28.519 73.041 28.864 C 73.384 28.951 75.446 30.904 77.623 33.204 C 80.572 36.32 81.581 37.559 81.581 38.065 C 81.581 38.566 80.526 39.889 77.55 43.119 C 73.723 47.273 72.853 47.979 71.921 47.686 Z M 49.526 43.151 C 47.306 40.835 45.416 38.681 45.327 38.362 C 45.237 38.043 45.256 37.544 45.368 37.251 C 45.48 36.959 47.374 34.932 49.576 32.747 C 53.002 29.347 53.699 28.774 54.412 28.774 C 55.341 28.774 56.357 29.801 56.357 30.739 C 56.357 31.076 55.103 32.558 53.086 34.606 L 49.816 37.927 L 51.954 40.152 C 56.114 44.482 56.351 44.771 56.354 45.542 C 56.358 46.541 55.488 47.36 54.424 47.36 C 53.665 47.36 53.089 46.864 49.526 43.151 Z" fill="#2B2B2B" fill-rule="nonzero"></path>
</svg>