<svg version="1.1" xmlns="http://www.w3.org/2000/svg" viewBox="0 0 83.48511657988817 83.48511657988817" width="83.48511657988817" height="83.48511657988817" class="excalidraw-svg"><!-- svg-source:excalidraw --><metadata></metadata><defs><style class="style-fonts">
      </style></defs><g stroke-linecap="round" transform="translate(10 10) rotate(0 31.742558289944085 31.742558289944085)"><path d="M19.39 3.16 C25.13 0.07, 33.38 -1.27, 39.96 0.6 C46.54 2.48, 54.86 8.66, 58.88 14.41 C62.9 20.17, 65.03 28.29, 64.08 35.11 C63.13 41.94, 58.21 50.76, 53.18 55.38 C48.16 60.01, 40.71 62.5, 33.93 62.84 C27.16 63.19, 18.08 61.33, 12.51 57.47 C6.94 53.61, 2.14 46.23, 0.51 39.71 C-1.13 33.18, -1.2 24.75, 2.7 18.3 C6.59 11.85, 19.69 4, 23.88 1.01 C28.08 -1.98, 28.02 -0.32, 27.88 0.34 M42.68 2.86 C49.04 4.74, 57.07 11.09, 60.48 16.86 C63.89 22.63, 64.71 30.92, 63.14 37.47 C61.58 44.03, 56.34 52.04, 51.11 56.17 C45.88 60.3, 38.65 62.45, 31.77 62.24 C24.89 62.03, 14.95 59.21, 9.83 54.91 C4.71 50.61, 1.76 43.01, 1.04 36.45 C0.31 29.88, 2.24 21.5, 5.47 15.52 C8.71 9.55, 14.18 2.64, 20.44 0.59 C26.71 -1.47, 39.4 3.13, 43.06 3.21 C46.72 3.3, 42.82 0.81, 42.39 1.11" stroke="#f08c00" stroke-width="2" fill="none"></path></g></svg>