<?xml version="1.0" encoding="UTF-8" standalone="no"?>
<svg
   width="462"
   height="693"
   viewBox="0 0 462 693"
   version="1.1"
   id="svg710"
   sodipodi:docname="ChatGPT Image Sep 17, 2025, 04_08_51 PM.svg"
   inkscape:version="1.4.2 (ebf0e940, 2025-05-08)"
   xmlns:inkscape="http://www.inkscape.org/namespaces/inkscape"
   xmlns:sodipodi="http://sodipodi.sourceforge.net/DTD/sodipodi-0.dtd"
   xmlns="http://www.w3.org/2000/svg"
   xmlns:svg="http://www.w3.org/2000/svg">
  <defs
     id="defs710" />
  <sodipodi:namedview
     id="namedview710"
     pagecolor="#ffffff"
     bordercolor="#000000"
     borderopacity="0.25"
     inkscape:showpageshadow="2"
     inkscape:pageopacity="0.0"
     inkscape:pagecheckerboard="0"
     inkscape:deskcolor="#d1d1d1"
     inkscape:zoom="1.6386723"
     inkscape:cx="180.93917"
     inkscape:cy="377.74484"
     inkscape:window-width="1424"
     inkscape:window-height="637"
     inkscape:window-x="0"
     inkscape:window-y="38"
     inkscape:window-maximized="0"
     inkscape:current-layer="svg710" />
  <path
     fill="#401E05"
     transform="matrix(-0.451172 0 0 0.451172 462 0)"
     d="M201.497 423.892C223.132 363.213 267.833 305.614 323.483 274.201C329.49 270.629 335.077 265.336 341.095 261.902C419.216 217.332 506.746 200.737 594.807 220.884C780.55 263.379 879.181 451.652 816.353 629.092C804.909 661.411 787.705 691.379 767.406 719.057C743.322 750.697 716.411 779.89 701.099 817.214C692 839.394 686.61 863.525 683.224 887.239C678.43 920.806 681.372 948.914 656.852 975.623C664.595 982.178 669.273 987.624 669.942 998.285C670.997 1015.09 669.913 1035.95 655.406 1046.97C674.018 1065.47 675.6 1081.08 655.704 1100.08L654.67 1101.05C670.953 1114.49 674.101 1131.65 661.601 1149.37C662.743 1151.48 663.698 1152.24 665.539 1153.78C664.675 1154.54 664.102 1154.89 662.922 1154.79C657.865 1154.37 651.402 1163.44 648.521 1161.22C646.424 1162.26 643.901 1163.7 641.805 1164.84C634.638 1203.13 600.049 1233.79 564.603 1246.55C553.613 1272.63 528.245 1285.44 500.241 1278.64C481.719 1274.15 469.813 1262.55 460.427 1246.35C426.505 1231.61 390.534 1200.68 384.484 1162.45C365.403 1155.76 352.532 1134.94 360.555 1115.25C363.38 1108.31 367.501 1104.4 372.793 1099.44C357.882 1087.49 349.107 1066.44 366.262 1051.03C368.093 1049.39 370.166 1047.83 371.838 1046.03L370.447 1043.72C366.164 1042.38 361.972 1036.1 359.758 1032.49C355.3 1020.01 354.669 1000.87 358.573 988.007C360.159 982.786 363.877 979.838 368.036 976.592C345.018 945.865 344.911 912.509 336.268 876.574C332.007 858.858 325.292 842.108 317.341 825.763C289.005 767.512 242.278 732.598 214.052 673.25C177.846 597.122 171.427 511.734 198.751 431.968C196.54 427.547 195.648 430.443 193.91 425.453L194.567 424.262C197.203 423.114 198.617 423.563 201.497 423.892Z"
     id="path9" />
  <path
     fill="#DBC49E"
     transform="matrix(-0.451172 0 0 0.451172 462 0)"
     d="M648.521 1161.22C654.052 1157.4 657.389 1154.58 661.601 1149.37C662.743 1151.48 663.698 1152.24 665.539 1153.78C664.675 1154.54 664.102 1154.89 662.922 1154.79C657.865 1154.37 651.402 1163.44 648.521 1161.22Z"
     id="path10" />
  <path
     fill="#401E05"
     transform="matrix(-0.451172 0 0 0.451172 462 0)"
     d="M359.758 1032.49C362.523 1031.94 363.633 1031.44 366.229 1032.47C367.55 1035.12 365.627 1036.24 365.978 1037.01C366.736 1038.68 369.927 1041.95 370.447 1043.72C366.164 1042.38 361.972 1036.1 359.758 1032.49Z"
     id="path11" />
  <path
     fill="#DBC49E"
     transform="matrix(-0.451172 0 0 0.451172 462 0)"
     d="M198.751 431.968C196.54 427.547 195.648 430.443 193.91 425.453L194.567 424.262C197.203 423.114 198.617 423.563 201.497 423.892C201 425.324 198.982 430.813 198.751 431.968Z"
     id="path12" />
  <path
     fill="#EFB546"
     transform="matrix(-0.451172 0 0 0.451172 462 0)"
     d="M362.39 927.844C354.546 893.767 353.15 864.891 339.548 832.439C317.557 779.973 280.046 744.004 249.079 698.52C185.38 604.958 182.194 473.808 243.958 378.478C276.69 325.991 324.16 281.403 381.02 256.011C425.408 236.669 470.117 229.861 517.933 230.388C577.549 231.046 629.608 244.918 680.195 275.584C826.612 364.34 855.902 558.36 762.935 696.789C738.93 732.534 708.489 763.243 689.96 802.233C680.788 821.551 676.276 840.662 671.926 861.537C664.214 898.546 666.465 948.503 636.374 975.638C623.381 987.354 592.053 990.999 574.947 992.387C568.176 872.199 578.399 733.002 622.904 620.245C645.981 615.955 662.24 608.912 677.259 589.613C690.251 572.92 684.869 545.397 660.151 550.432C635.754 555.401 620.117 585.425 611.121 605.993C582.904 607.228 560.435 587.678 551.074 562.126C568.496 552.368 581.562 539.471 587.069 519.665C590.074 507.763 593.288 491.731 587.071 480.536C580.59 468.866 563.01 467.427 552.471 473.965C528.246 488.993 526.598 529.241 531.134 554.441C517.504 560.471 499.528 560.856 485.01 557.874C493.644 538.154 496.77 517.379 489.195 496.838C482.82 479.547 461.776 463.826 443.663 472.637C422.201 483.077 415.99 509.708 426.204 530.261C435.14 548.242 446.645 557.548 463.497 566.472C449.853 584.004 435.041 593.874 413.179 599.047C402.642 582.714 389.689 562.138 369.405 557.552C349.081 552.956 340.718 577.85 352.461 592.087C365.343 607.706 382.645 612.465 401.918 612.959C440.895 698.673 453.788 839.205 451.777 932.489C451.706 952.111 450.398 971.442 450.124 991.022C400.866 984.424 375.648 982.066 362.39 927.844Z"
     id="path13" />
  <path
     fill="#DD9E40"
     transform="matrix(-0.451172 0 0 0.451172 462 0)"
     d="M382.866 926.543C381.814 919.055 379.552 898.528 382.494 892.155C387.121 893.017 393.153 927.642 394.523 933.909C409.056 935.499 438.483 938.05 451.777 932.489C451.706 952.111 450.398 971.442 450.124 991.022C400.866 984.424 375.648 982.066 362.39 927.844C371.302 925.769 382.942 937.789 382.866 926.543Z"
     id="path14" />
  <path
     fill="#401E05"
     transform="matrix(-0.451172 0 0 0.451172 462 0)"
     d="M382.866 926.543C381.814 919.055 379.552 898.528 382.494 892.155C387.121 893.017 393.153 927.642 394.523 933.909C400.096 948.152 404.944 950.43 416.287 958.804C416.969 960.793 416.652 961.239 416.075 963.385C412.001 967.367 406.307 964.028 402.294 961.139C390.215 952.441 385.531 940.701 382.866 926.543Z"
     id="path15" />
  <path
     fill="#F9D57C"
     transform="matrix(-0.451172 0 0 0.451172 462 0)"
     d="M481.223 257.554C486.704 256.184 513.917 256.625 520.616 258.215C524.687 259.18 528.231 260.623 532.046 262.456C557.614 302.208 494.753 304.897 470.248 311.052C397.164 329.409 340.741 375.8 305.346 442.021C295.082 461.224 288.082 480.431 278.943 499.804C275.704 506.936 266.606 528.379 259.88 529.236C247.307 530.837 249.909 492.982 250.788 486.563C257.585 436.96 281.931 385.034 315.013 347.52C353.968 303.347 421.695 261.627 481.223 257.554Z"
     id="path16" />
  <path
     fill="#DBC49E"
     transform="matrix(-0.451172 0 0 0.451172 462 0)"
     d="M431.171 290.918C431.83 292.484 431.63 291.643 431.38 293.604C429.503 296.259 428.649 296.802 426.161 298.725C424.757 296.279 425.005 296.369 425.745 293.943C427.72 291.805 428.335 291.739 431.171 290.918Z"
     id="path17" />
  <path
     fill="#DBC49E"
     transform="matrix(-0.451172 0 0 0.451172 462 0)"
     d="M457.13 289.415C459.402 289.161 460.491 288.742 462.299 289.873L462.446 291.887C461.175 292.364 460.01 292.535 458.683 292.792L457.397 291.77L457.13 289.415Z"
     id="path18" />
  <path
     fill="#401E05"
     transform="matrix(-0.451172 0 0 0.451172 462 0)"
     d="M363.035 284.877L365.001 285.4L365.238 286.811C364.167 288.586 340.805 305.975 336.823 309.187C298.618 340.006 269.554 375.032 250.829 420.677C241.862 442.533 236.589 461.287 231.899 484.384C230.321 492.158 229.483 500.473 227.988 508.285C227.645 510.079 226.024 511.366 224.59 512.45L222.507 510.621C219.01 502.04 230.436 458.834 233.458 448.298C252.338 382.462 301.306 317.053 363.035 284.877Z"
     id="path19" />
  <path
     fill="#401E05"
     transform="matrix(-0.451172 0 0 0.451172 462 0)"
     d="M254.504 650.397C255.494 650.758 257.126 651.107 257.579 652.21C284.801 718.637 348.797 759.525 365.408 831.709C368.306 844.306 370.736 848.653 367.563 862.088L366.526 862.05C364.271 858.967 362.464 850.752 361.782 846.97C350.466 784.139 304.575 742.605 270.817 692.114C266.138 685.116 252.552 658.353 254.504 650.397Z"
     id="path20" />
  <path
     fill="#401E05"
     transform="matrix(-0.451172 0 0 0.451172 462 0)"
     d="M661.782 312.135C682.947 309.83 731.521 374.316 741.095 391.613C752.85 412.851 777.841 462.225 774.657 486.575C772.777 487.091 772.804 486.979 771.016 486.424C769.809 485.21 768.715 483.198 768.36 481.556C756.819 428.098 728.809 379.913 691.362 340.403C686.081 334.832 663.303 317.078 661.782 312.135Z"
     id="path21" />
  <path
     fill="#401E05"
     transform="matrix(-0.451172 0 0 0.451172 462 0)"
     d="M708.316 381.38C714.536 383.138 721.918 393.401 725.347 398.903C748.425 435.938 759.883 484.086 760.661 527.432C760.813 535.942 760.776 545.694 759.05 553.872C758.226 554.377 757.405 554.626 756.495 554.975C755.079 554.264 754.429 553.575 754.53 551.721C758.144 485.844 741.694 436.788 708.316 381.38Z"
     id="path22" />
  <path
     fill="#401E05"
     transform="matrix(-0.451172 0 0 0.451172 462 0)"
     d="M783.465 642.531L784.667 642.952L785.03 643.778C775.678 659.527 731.88 700.548 716.235 712.531L715.473 712.299L715.286 711.092C719.385 704.982 740.733 684.932 747.135 678.815C756.053 670.292 774.615 649.194 783.465 642.531Z"
     id="path23" />
  <path
     fill="#401E05"
     transform="matrix(-0.451172 0 0 0.451172 462 0)"
     d="M748.292 703.438L748.465 704.997C742.434 714.53 694.512 753.869 683.889 759.396C683.436 758.104 683.604 757.916 683.771 756.523C688.878 749.136 739.596 708.303 748.292 703.438Z"
     id="path24" />
  <path
     fill="#401E05"
     transform="matrix(-0.451172 0 0 0.451172 462 0)"
     d="M794.101 605.009C795.095 605.739 794.655 605.386 795.261 606.71C789.788 618.282 757.75 650.557 746.814 658.362C745.837 657.101 746.215 657.816 746.118 655.974C748.697 650.801 787.477 610.584 794.101 605.009Z"
     id="path25" />
  <path
     fill="#401E05"
     transform="matrix(-0.451172 0 0 0.451172 462 0)"
     d="M807.862 563.773C808.661 564.509 808.314 564.185 808.708 565.442C805.88 575.574 772.569 610.907 763.128 618.117C762.624 617.642 762.546 617.223 762.22 616.523C764.548 609.938 800.592 571.584 807.862 563.773Z"
     id="path26" />
  <path
     fill="#401E05"
     transform="matrix(-0.451172 0 0 0.451172 462 0)"
     d="M707.342 758.84L708.402 759.963C708.087 766.81 669.18 794.028 662.105 798.86L660.569 798.496L660.595 797.235C665.587 789.39 698.564 763.651 707.342 758.84Z"
     id="path27" />
  <path
     fill="#401E05"
     transform="matrix(-0.451172 0 0 0.451172 462 0)"
     d="M688.794 794.05L689.678 794.538L689.996 795.922C684.329 805.609 659.317 826.226 649.777 834.193C649.044 833.983 649.017 833.815 648.359 833.294C650.884 826.476 681.951 797.768 688.794 794.05Z"
     id="path28" />
  <path
     fill="#401E05"
     transform="matrix(-0.451172 0 0 0.451172 462 0)"
     d="M812.408 523.926L813.536 524.571C815.592 532.561 788.202 564.34 781.9 570.28C780.63 569.78 781.184 570.156 780.407 568.911C780.932 565.218 807.908 530.031 812.408 523.926Z"
     id="path29" />
  <path
     fill="#401E05"
     transform="matrix(-0.451172 0 0 0.451172 462 0)"
     d="M643.843 942.489L646.017 943.149L646.047 944.699C641.311 952.225 620.633 963.093 612.408 967.008C611.867 966.954 610.574 966.548 609.983 966.382L609.886 965.307C612.781 960.808 637.757 946.131 643.843 942.489Z"
     id="path30" />
  <path
     fill="#401E05"
     transform="matrix(-0.451172 0 0 0.451172 462 0)"
     d="M808.54 490.972L809.604 491.951C810.828 501.171 792.345 528.648 785.342 535.51C784.56 535.237 784.937 535.435 784.375 534.442C789.875 524.634 803.499 497.847 808.54 490.972Z"
     id="path31" />
  <path
     fill="#401E05"
     transform="matrix(-0.451172 0 0 0.451172 462 0)"
     d="M802.282 458.587C803.729 459.65 803.144 458.974 803.849 460.858C802.529 471.967 791.686 492.19 783.858 500.431C782.969 500.168 783.356 500.288 782.583 499.515C786.575 491.714 799.38 462.533 802.282 458.587Z"
     id="path32" />
  <path
     fill="#401E05"
     transform="matrix(-0.451172 0 0 0.451172 462 0)"
     d="M671.787 834.497C673.024 834.468 672.551 834.454 673.786 835.11L673.67 836.758C670.416 842.073 649.989 856.726 644.079 861.218C643.734 861.341 642.307 861.482 641.852 861.538L641.263 860.724C644.603 854.044 665.209 838.758 671.787 834.497Z"
     id="path33" />
  <path
     fill="#401E05"
     transform="matrix(-0.451172 0 0 0.451172 462 0)"
     d="M651.99 916.932L653.603 917.851L653.986 919.464C651.248 926.772 635.5 936.17 628.452 939.887L627.105 939.676L627.392 938C632.377 931.367 644.954 921.531 651.99 916.932Z"
     id="path34" />
  <path
     fill="#401E05"
     transform="matrix(-0.451172 0 0 0.451172 462 0)"
     d="M778.414 410.624C786.51 414.042 779.794 435.949 776.736 441.726C775.597 440.825 774.432 440.284 774.209 439.088C773.229 433.832 775.918 414.997 778.414 410.624Z"
     id="path35" />
  <path
     fill="#401E05"
     transform="matrix(-0.451172 0 0 0.451172 462 0)"
     d="M663.287 864.425C664.508 864.962 663.938 864.622 664.83 865.79C662.431 871.472 642.3 886.442 636.328 891.095L635.101 891.306L634.83 890.257C636.634 883.372 656.893 868.258 663.287 864.425Z"
     id="path36" />
  <path
     fill="#401E05"
     transform="matrix(-0.451172 0 0 0.451172 462 0)"
     d="M657.124 889.983L659.303 890.609L659.418 892.008C656.405 897.66 642.962 907.229 637.304 911.425C635.846 911.336 636.539 911.433 635.111 910.519L635.259 908.693C638.788 902.686 651.005 893.629 657.124 889.983Z"
     id="path37" />
  <path
     fill="#401E05"
     transform="matrix(-0.451172 0 0 0.451172 462 0)"
     d="M793.871 436.966L794.801 438.268C795.155 445.259 787.881 459.735 783.325 465.142C779.748 461.4 789.527 440.166 793.871 436.966Z"
     id="path38" />
  <path
     fill="#DD9E40"
     transform="matrix(-0.451172 0 0 0.451172 462 0)"
     d="M384.336 352.528C387.693 352.646 396.889 356.81 397.974 359.849C394.569 359.763 387.657 357.605 385.113 355.37C384.314 354.668 384.521 353.936 384.336 352.528Z"
     id="path39" />
  <path
     fill="#DD9E40"
     transform="matrix(-0.451172 0 0 0.451172 462 0)"
     d="M598.923 302.076L599.715 302.895C601.205 308.963 600.571 310.595 595.743 313.655L594.939 312.392C596.155 308.945 597.515 305.449 598.923 302.076Z"
     id="path40" />
  <path
     fill="#DD9E40"
     transform="matrix(-0.451172 0 0 0.451172 462 0)"
     d="M698.615 493.624C700.651 494.201 699.797 493.676 701.222 495.321C701.689 497.926 701.344 498.431 700.563 501.071C697.727 499.895 698.263 500.59 696.763 498.407C696.726 496.22 697.404 495.584 698.615 493.624Z"
     id="path41" />
  <path
     fill="#DD9E40"
     transform="matrix(-0.451172 0 0 0.451172 462 0)"
     d="M570.743 266.071C572.195 266.277 573.053 267.112 574.263 267.989C575.389 270.799 575.082 269.74 574.612 273.302C571.318 270.744 568.903 270.076 570.743 266.071Z"
     id="path42" />
  <path
     fill="#DD9E40"
     transform="matrix(-0.451172 0 0 0.451172 462 0)"
     d="M527.314 468.66C529.486 468.773 529.844 468.858 531.954 469.439L532.529 470.539L531.419 472.686C528.248 472.199 528.813 472.793 527.082 470.915L527.314 468.66Z"
     id="path43" />
  <path
     fill="#DD9E40"
     transform="matrix(-0.451172 0 0 0.451172 462 0)"
     d="M341.656 471.564C345.245 472.076 346.424 472.319 348.452 475.401C344.55 475.361 344.062 474.258 341.656 471.564Z"
     id="path44" />
  <path
     fill="#EFB546"
     transform="matrix(-0.451172 0 0 0.451172 462 0)"
     d="M534.811 568.653C544.994 601.701 573.279 616.168 604.969 621.359C573.102 703.445 560.725 823.733 559.16 910.794C558.905 933.655 559.43 969.601 562.737 992.235C534.942 995.227 488.826 995.706 461.218 992.187C462.786 970.734 463.661 949.602 464.272 928.104C464.318 919.113 464.561 910.12 464.689 901.129C466.088 802.879 456.537 702.837 418.645 611.114C441.814 606.975 463.736 590.95 477.895 572.522C499.893 577.326 513.876 576.224 534.811 568.653Z"
     id="path45" />
  <path
     fill="#DD9E40"
     transform="matrix(-0.451172 0 0 0.451172 462 0)"
     d="M464.272 928.104C480.744 930.343 519.406 924.022 535.582 919.497C540.737 918.055 553.593 912.955 559.16 910.794C558.905 933.655 559.43 969.601 562.737 992.235C534.942 995.227 488.826 995.706 461.218 992.187C462.786 970.734 463.661 949.602 464.272 928.104Z"
     id="path46" />
  <path
     fill="#DD9E40"
     transform="matrix(-0.451172 0 0 0.451172 462 0)"
     d="M514.061 913.571L517.74 913.837C519.715 915.352 519.139 914.499 519.704 917.131C516.64 916.613 514.788 916.736 514.061 913.571Z"
     id="path47" />
  <path
     fill="#B3753B"
     transform="matrix(-0.451172 0 0 0.451172 462 0)"
     d="M400.776 1169.6C438.622 1180.98 504.767 1184.9 544.391 1182.47C548.952 1182.07 554.186 1181.93 558.812 1181.69C560.825 1181.33 571.851 1180.73 575.131 1180.36C581.309 1179.67 593.092 1177.34 598.495 1177.34L603.131 1177.03C605.817 1174.4 620.867 1171.54 625.692 1170.18C620.705 1188.61 604.654 1205.74 589.664 1217C554.55 1243.38 498.622 1249.28 458.869 1229.91L457.749 1229.39C430.534 1216.66 411.097 1198.19 400.776 1169.6Z"
     id="path48" />
  <path
     fill="#985721"
     transform="matrix(-0.451172 0 0 0.451172 462 0)"
     d="M603.131 1177.03C605.817 1174.4 620.867 1171.54 625.692 1170.18C620.705 1188.61 604.654 1205.74 589.664 1217C554.55 1243.38 498.622 1249.28 458.869 1229.91C466.313 1227.86 472.313 1230.95 479.325 1231.39C485.841 1231.8 493.94 1230.01 500.315 1229.73L500.828 1229.71L502.077 1229.69C505.609 1227.18 513.6 1224.09 517.86 1222.31C524.456 1220.19 536.465 1208.63 541.03 1202.99C548.893 1197.12 551.377 1184.69 558.812 1181.69C560.825 1181.33 571.851 1180.73 575.131 1180.36C581.309 1179.67 593.092 1177.34 598.495 1177.34L603.131 1177.03Z"
     id="path49" />
  <path
     fill="#401E05"
     transform="matrix(-0.451172 0 0 0.451172 462 0)"
     d="M598.495 1177.34L603.131 1177.03C599.3 1185.12 562.658 1221.75 553.707 1229.3C562.368 1212.99 584.807 1190.66 598.495 1177.34Z"
     id="path50" />
  <path
     fill="#401E05"
     transform="matrix(-0.451172 0 0 0.451172 462 0)"
     d="M580.534 1183.53L580.973 1184.79C575.331 1192.05 542.512 1223.79 535.241 1228.31L534.455 1226.96C540.022 1216.76 569.184 1188.91 580.534 1183.53Z"
     id="path51" />
  <path
     fill="#401E05"
     transform="matrix(-0.451172 0 0 0.451172 462 0)"
     d="M617.179 1173.53C623.465 1180.13 584.373 1214.95 578.966 1221.63C578.45 1221.07 577.795 1220.65 578.036 1220.15C581.756 1212.47 612.557 1176.69 617.179 1173.53Z"
     id="path52" />
  <path
     fill="#A86931"
     transform="matrix(-0.451172 0 0 0.451172 462 0)"
     d="M544.391 1182.47C548.952 1182.07 554.186 1181.93 558.812 1181.69C551.377 1184.69 548.893 1197.12 541.03 1202.99C542.252 1200.61 543.193 1200.76 543.822 1197.6C543.143 1195.39 542.527 1194.38 543.277 1192.35C547.572 1190.01 549.664 1187.47 552.541 1183.64C550.587 1184.18 546.517 1182.96 544.391 1182.47Z"
     id="path53" />
  <path
     fill="#A86931"
     transform="matrix(-0.451172 0 0 0.451172 462 0)"
     d="M500.828 1229.71C502.028 1225.56 502.576 1224.19 506.072 1221.66L507.166 1221.88L507.714 1222.76L505.948 1224.35L506.394 1225.2C511.133 1224.93 510.881 1220.58 517.86 1222.31C513.6 1224.09 505.609 1227.18 502.077 1229.69L500.828 1229.71Z"
     id="path54" />
  <path
     fill="#DD9E40"
     transform="matrix(-0.451172 0 0 0.451172 462 0)"
     d="M441.196 1200.95C436.824 1199.02 429.531 1196.69 428.952 1191.37C432.956 1186.35 466.897 1189.76 471.192 1192.9C472.193 1195.49 471.949 1194.54 471.203 1197.68C471.631 1199.58 471.879 1200.06 472.985 1201.69L472.857 1203.41C471.142 1204.69 468.846 1204.9 466.68 1205.07L465.724 1206.15C464.583 1205.52 461.81 1204.41 460.489 1203.84L459.694 1204.6C455.862 1204.3 450.413 1204.37 447.731 1201.64C444.379 1204.58 442.85 1206.22 438.408 1207.2L437.619 1206.43C437.97 1204.13 439.586 1202.79 441.196 1200.95Z"
     id="path55" />
  <path
     fill="#623711"
     transform="matrix(-0.451172 0 0 0.451172 462 0)"
     d="M468.018 1198.4L471.203 1197.68C471.631 1199.58 471.879 1200.06 472.985 1201.69L472.857 1203.41C471.142 1204.69 468.846 1204.9 466.68 1205.07L465.724 1206.15C464.583 1205.52 461.81 1204.41 460.489 1203.84C463.484 1201.04 464.326 1200.11 468.018 1198.4Z"
     id="path56" />
  <path
     fill="#C48A4E"
     transform="matrix(-0.451172 0 0 0.451172 462 0)"
     d="M468.018 1198.4L471.203 1197.68C471.631 1199.58 471.879 1200.06 472.985 1201.69L472.857 1203.41C471.142 1204.69 468.846 1204.9 466.68 1205.07C468.059 1203.06 468.939 1202.16 469.242 1199.73L468.018 1198.4Z"
     id="path57" />
  <path
     fill="#401E05"
     transform="matrix(-0.451172 0 0 0.451172 462 0)"
     d="M441.196 1200.95L446.125 1196.11C447.846 1197.85 447.735 1198.16 448.067 1200.73L447.731 1201.64C444.379 1204.58 442.85 1206.22 438.408 1207.2L437.619 1206.43C437.97 1204.13 439.586 1202.79 441.196 1200.95Z"
     id="path58" />
  <path
     fill="#623711"
     transform="matrix(-0.451172 0 0 0.451172 462 0)"
     d="M446.125 1196.11C447.795 1194.41 448.206 1193.62 450.415 1193.26L451.638 1194.03C451.913 1197.61 450.946 1198.35 448.067 1200.73C447.735 1198.16 447.846 1197.85 446.125 1196.11Z"
     id="path59" />
  <path
     fill="#401E05"
     transform="matrix(-0.451172 0 0 0.451172 462 0)"
     d="M460.489 1203.84C461.81 1204.41 464.583 1205.52 465.724 1206.15C461.098 1212.12 454.815 1214.47 448.001 1216.83L459.694 1204.6L460.489 1203.84Z"
     id="path60" />
  <path
     fill="#401E05"
     transform="matrix(-0.451172 0 0 0.451172 462 0)"
     d="M474.931 1209.18C477.175 1207.25 479.146 1205.14 482.047 1204.73L483.648 1205.35C484.262 1209.47 481.216 1211.1 478.275 1213.62C477.511 1212.19 475.986 1210.47 474.931 1209.18Z"
     id="path61" />
  <path
     fill="#401E05"
     transform="matrix(-0.451172 0 0 0.451172 462 0)"
     d="M478.275 1213.62C475.575 1215.63 473.983 1216.93 470.806 1216.64L470.296 1215.28C471.043 1212.45 472.771 1211.25 474.931 1209.18C475.986 1210.47 477.511 1212.19 478.275 1213.62Z"
     id="path62" />
  <path
     fill="#401E05"
     transform="matrix(-0.451172 0 0 0.451172 462 0)"
     d="M498.919 1207.23C499.798 1207.7 499.447 1207.55 500.105 1208.59C498.574 1211.29 495.115 1213.8 492.626 1215.87L491.649 1215.59L491.749 1214.33C494.371 1211.03 495.662 1209.98 498.919 1207.23Z"
     id="path63" />
  <path
     fill="#B3753B"
     transform="matrix(-0.451172 0 0 0.451172 462 0)"
     d="M375.145 1031.07C372.017 1022.38 366.818 995.228 372.098 987.822C373.551 987.496 379.627 989.97 381.405 990.606C397.324 996.294 414.662 1002.24 431.381 1004.85C478.865 1012.26 528.998 1010.37 576.657 1005.59C579.598 1006.59 580.894 1006.83 583.18 1009.05C585.636 1015.81 568.193 1041.06 566.165 1046.77C563.978 1048.48 563.398 1048.95 561.652 1051.09C561.496 1051.13 561.339 1051.17 561.183 1051.21C508.62 1054.22 454.004 1054.8 402.799 1041.05C392.161 1038.19 383.294 1036.08 375.145 1031.07Z"
     id="path64" />
  <path
     fill="#DD9E40"
     transform="matrix(-0.451172 0 0 0.451172 462 0)"
     d="M395.852 1001.09C397.997 1002.09 401.157 1004.62 403.833 1005.31C423.383 1010.39 443.407 1014.02 463.523 1015.99C472.672 1016.88 489.053 1014.71 494.605 1023.34C496.289 1029.48 491.789 1031.56 487.262 1034.14C477.166 1041.95 446.362 1040.03 434.441 1036.64C419.355 1032.34 390.007 1021.48 395.852 1001.09Z"
     id="path65" />
  <path
     fill="#C48A4E"
     transform="matrix(-0.451172 0 0 0.451172 462 0)"
     d="M429.67 1020.79C431.135 1020.26 432.759 1020.99 433.322 1022.45C433.886 1023.9 433.182 1025.54 431.739 1026.13C430.78 1026.52 429.684 1026.37 428.872 1025.72C428.061 1025.08 427.661 1024.05 427.826 1023.02C427.992 1022 428.697 1021.15 429.67 1020.79Z"
     id="path66" />
  <path
     fill="#A86931"
     transform="matrix(-0.451172 0 0 0.451172 462 0)"
     d="M564.453 1034.62L566.212 1036.64L566.095 1038.06L563.74 1039.72L562.66 1039.28L562.297 1037.93L564.453 1034.62Z"
     id="path67" />
  <path
     fill="#B3753B"
     transform="matrix(-0.451172 0 0 0.451172 462 0)"
     d="M383.421 1104.88C421.08 1116.92 470.026 1121.69 509.425 1121.32C523.929 1121.18 538.795 1119.99 553.385 1119.72C559.078 1118.62 575.67 1117.73 582.272 1117.22L582.547 1118.7L579.197 1122.86C577.019 1128.85 555.627 1156.61 548.828 1160.21C545.656 1161.9 537.37 1166.41 534.63 1168.63C534.075 1168.68 533.528 1168.73 532.97 1168.73C502.021 1169.14 400.494 1163.84 379.427 1143.59C374.957 1139.29 371.712 1133.73 371.686 1127.4C371.649 1118.47 377.459 1110.92 383.421 1104.88Z"
     id="path68" />
  <path
     fill="#A86931"
     transform="matrix(-0.451172 0 0 0.451172 462 0)"
     d="M553.385 1119.72C559.078 1118.62 575.67 1117.73 582.272 1117.22L582.547 1118.7L579.197 1122.86C579.314 1121.07 579.268 1120.32 580.388 1118.81L578.176 1118.36C575.561 1119.05 574.841 1119.69 572.825 1121.48C571.548 1121.68 554.503 1120.17 553.385 1119.72Z"
     id="path69" />
  <path
     fill="#DD9E40"
     transform="matrix(-0.451172 0 0 0.451172 462 0)"
     d="M410.26 1119.59C419.915 1120.66 473.593 1130.09 480.349 1133.3C482.622 1134.38 483.472 1135.14 484.315 1137.43C483.797 1141.68 481.067 1143.38 477.82 1146.04C458.906 1152.85 436.78 1151.9 418.553 1143.03C408.262 1138.02 403.846 1130.05 410.26 1119.59Z"
     id="path70" />
  <path
     fill="#B3753B"
     transform="matrix(-0.451172 0 0 0.451172 462 0)"
     d="M383.676 1050.89C399.93 1055.75 416.314 1060.46 433.083 1063.18C480.697 1070.92 532.964 1069.53 580.816 1064.92L583.797 1065.2C582.34 1071.31 580.888 1074.48 577.513 1079.83C576.234 1082.33 571.528 1091.35 569.953 1093.27C569.598 1097.27 570.12 1096.18 566.713 1099.29C564.357 1101.44 561.358 1103.22 558.504 1104.62L548.462 1104.73C505.83 1108.62 450.635 1105.36 408.869 1096.92C400.652 1095.26 388.12 1092.9 380.438 1089.9C367.775 1075.62 367.408 1062.31 383.676 1050.89Z"
     id="path71" />
  <path
     fill="#A86931"
     transform="matrix(-0.451172 0 0 0.451172 462 0)"
     d="M548.462 1104.73C551.301 1102.82 554.018 1101.31 557.45 1100.96C563.212 1100.38 565.234 1096.57 569.953 1093.27C569.598 1097.27 570.12 1096.18 566.713 1099.29C564.357 1101.44 561.358 1103.22 558.504 1104.62L548.462 1104.73Z"
     id="path72" />
  <path
     fill="#DD9E40"
     transform="matrix(-0.451172 0 0 0.451172 462 0)"
     d="M402.363 1064.58C405.114 1064.91 415.812 1068.31 419.869 1069.08C436.383 1072.06 454.243 1076.55 471.087 1075.89C479.075 1075.57 497.506 1076.57 484.123 1088.29C465.105 1099.7 401.803 1090.87 402.363 1064.58Z"
     id="path73" />
  <path
     fill="#985721"
     transform="matrix(-0.451172 0 0 0.451172 462 0)"
     d="M642.549 1105.55C648.767 1111.5 655.243 1117.96 655.455 1127.17C655.602 1133.56 652.411 1139.1 648.071 1143.57C629.756 1162.42 570.051 1168.62 544.141 1168.75C540.969 1168.77 537.8 1168.74 534.63 1168.63C537.37 1166.41 545.656 1161.9 548.828 1160.21C555.627 1156.61 577.019 1128.85 579.197 1122.86L582.547 1118.7L582.272 1117.22C601.3 1113 623.042 1113.51 642.549 1105.55Z"
     id="path74" />
  <path
     fill="#401E05"
     transform="matrix(-0.451172 0 0 0.451172 462 0)"
     d="M648.111 1114.52C648.306 1114.73 648.541 1115.44 648.667 1115.76C638.896 1127.18 625.884 1144.78 616.216 1154.4L615.494 1153.36C617.098 1145.17 634.392 1124.71 640.89 1118.55C642.09 1117.41 646.436 1115.3 648.111 1114.52Z"
     id="path75" />
  <path
     fill="#401E05"
     transform="matrix(-0.451172 0 0 0.451172 462 0)"
     d="M627.709 1115.76C628.398 1116.15 628.382 1116.32 628.92 1117.01C626.753 1124.27 603.515 1148.78 596.973 1154.97L596.335 1154.89L595.879 1154C603.949 1143.55 617.4 1121.83 627.709 1115.76Z"
     id="path76" />
  <path
     fill="#401E05"
     transform="matrix(-0.451172 0 0 0.451172 462 0)"
     d="M607.638 1119.05C610.312 1124.43 584.277 1149.09 579.391 1152.87C578.358 1151.8 578.806 1152.39 578.524 1150.55C581.284 1144.13 601.659 1122.96 607.638 1119.05Z"
     id="path77" />
  <path
     fill="#401E05"
     transform="matrix(-0.451172 0 0 0.451172 462 0)"
     d="M650.213 1121.65C655.917 1124.94 639.357 1141.92 636.072 1144.43L635.362 1144.14L635.301 1143.01C638.762 1137.42 645.844 1125.67 650.213 1121.65Z"
     id="path78" />
  <path
     fill="#985721"
     transform="matrix(-0.451172 0 0 0.451172 462 0)"
     d="M649.911 984.914C652.597 987.674 653.321 988.871 655.417 992.127C655.582 995.605 656.667 1007.17 654.932 1009.46C643.975 1013.25 639.418 1023.68 631.544 1031.8C629.216 1034.21 627.155 1036.99 627.629 1040.47L627.818 1040.73C613.378 1045.65 576.37 1050.6 561.652 1051.09C563.398 1048.95 563.978 1048.48 566.165 1046.77C568.193 1041.06 585.636 1015.81 583.18 1009.05C580.894 1006.83 579.598 1006.59 576.657 1005.59C580.891 1005.07 585.088 1004.47 589.311 1003.88C608.706 1001.23 634.081 996.694 649.911 984.914Z"
     id="path79" />
  <path
     fill="#A86931"
     transform="matrix(-0.451172 0 0 0.451172 462 0)"
     d="M576.657 1005.59C580.891 1005.07 585.088 1004.47 589.311 1003.88C589.027 1012.23 578.352 1021.16 578.597 1029.67C580.476 1030.51 580.437 1030.5 582.481 1030.75L580.273 1031.49L579.943 1033.51L579.186 1034C574.126 1037.34 574.248 1038.02 572.752 1043.61C570.338 1046.08 569.883 1045.51 566.165 1046.77C568.193 1041.06 585.636 1015.81 583.18 1009.05C580.894 1006.83 579.598 1006.59 576.657 1005.59Z"
     id="path80" />
  <path
     fill="#401E05"
     transform="matrix(-0.451172 0 0 0.451172 462 0)"
     d="M644.2 994.825C645.707 995.266 645.146 995.025 646.391 996.128C649.227 1005.88 619.838 1034.16 611.427 1039.77L610.145 1039.52L609.664 1038.54C612.128 1031.93 627.423 1016.76 632.451 1010.1C635.773 1005.7 640.739 999.375 644.2 994.825Z"
     id="path81" />
  <path
     fill="#401E05"
     transform="matrix(-0.451172 0 0 0.451172 462 0)"
     d="M623.834 1002.72C624.678 1012.34 598.329 1035.76 590.907 1042.84C588.542 1032.58 616.279 1009.09 623.834 1002.72Z"
     id="path82" />
  <path
     fill="#985721"
     transform="matrix(-0.451172 0 0 0.451172 462 0)"
     d="M641.91 1052.17C645.719 1054.92 646.839 1055.91 650.101 1059.29C652.135 1062.1 653.865 1064.29 655.33 1067.45C655.906 1074.39 656.798 1077.89 651.857 1083.68C638.062 1099.85 582.431 1103.19 561.407 1104.46L558.504 1104.62C561.358 1103.22 564.357 1101.44 566.713 1099.29C570.12 1096.18 569.598 1097.27 569.953 1093.27C571.528 1091.35 576.234 1082.33 577.513 1079.83C580.888 1074.48 582.34 1071.31 583.797 1065.2L580.816 1064.92C582.716 1064.33 586.123 1064.18 588.275 1063.87C606.505 1061.2 624.179 1057.09 641.91 1052.17Z"
     id="path83" />
  <path
     fill="#401E05"
     transform="matrix(-0.451172 0 0 0.451172 462 0)"
     d="M633.097 1058.9L633.643 1059.51C634.507 1066.73 611.568 1092.6 605.161 1095.69L604.112 1093.84C604.622 1088.85 628.81 1062.89 633.097 1058.9Z"
     id="path84" />
  <path
     fill="#401E05"
     transform="matrix(-0.451172 0 0 0.451172 462 0)"
     d="M614.132 1064.89C615.077 1066 614.69 1065.36 614.762 1067.22C610.586 1076.63 597.73 1087.7 589.191 1093.62L588.442 1092.43C590.442 1085.76 608.327 1069.07 614.132 1064.89Z"
     id="path85" />
  <path
     fill="#401E05"
     transform="matrix(-0.451172 0 0 0.451172 462 0)"
     d="M646.568 1063.14L648.244 1064C649.134 1070.38 633.838 1085.84 628.324 1088.83C627.287 1088.72 627.803 1088.87 626.883 1087.98C628.256 1083.08 642.44 1067.28 646.568 1063.14Z"
     id="path86" />
  <path
     fill="#EFB546"
     transform="matrix(-0.451172 0 0 0.451172 462 0)"
     d="M454.32 486.895C477.752 487.781 481.134 518.038 477.017 535.632C475.542 541.938 473.971 546.279 471.511 552.173L465.217 549.034C452.618 542.074 442.305 529.663 438.518 515.708C434.8 502.007 439.972 490.36 454.32 486.895Z"
     id="path87" />
  <path
     fill="#EFB546"
     transform="matrix(-0.451172 0 0 0.451172 462 0)"
     d="M564.105 486.84L565.433 486.863C574.399 487.11 576.883 492.648 575.828 501.022C573.662 518.203 566.864 532.36 553.103 543.184L548.353 546.524C544.666 526.923 542.636 497.182 564.105 486.84Z"
     id="path88" />
  <path
     fill="#EFB546"
     transform="matrix(-0.451172 0 0 0.451172 462 0)"
     d="M663.695 565.576C669.671 566.081 672.125 569.252 669.079 574.821C661.805 588.118 648.965 598.07 634.814 603.166C633.003 603.797 633.04 603.761 631.242 603.824C630.202 601.006 632.958 595.832 634.409 593.357C641.363 581.492 649.944 569.56 663.695 565.576Z"
     id="path89" />
  <path
     fill="#985721"
     transform="matrix(-0.451172 0 0 0.451172 462 0)"
     d="M542.146 1251.95L544.435 1251.9L544.825 1252.7C542.048 1258.04 532.924 1263.53 526.955 1265.31C513.76 1269.23 505.479 1267.75 493.547 1261.6C489.104 1258.84 486.665 1256.95 482.619 1253.7C503.675 1257.05 521.36 1255.99 542.146 1251.95Z"
     id="path90" />
  <path
     fill="#EFB546"
     transform="matrix(-0.451172 0 0 0.451172 462 0)"
     d="M362.915 572.192C375.996 571.277 386.52 587.714 392.668 597.913L392.19 598.997C381.162 596.953 355.033 587.739 362.915 572.192Z"
     id="path91" />
  <path
     fill="#985721"
     transform="matrix(-0.451172 0 0 0.451172 462 0)"
     d="M643.878 1026.62C646.746 1029.45 648.046 1029.01 652.184 1028.96C646.317 1035.9 636.613 1039.58 627.818 1040.73L627.629 1040.47C634.058 1038.03 638.726 1031.64 643.878 1026.62Z"
     id="path92" />
  <path
     fill="#985721"
     transform="matrix(-0.451172 0 0 0.451172 462 0)"
     d="M643.878 1026.62C648.432 1021.51 651.694 1017.56 655.823 1012.1C655.071 1018.32 654.659 1023.09 652.184 1028.96C648.046 1029.01 646.746 1029.45 643.878 1026.62Z"
     id="path93" />
  <path
     fill="#401E05"
     transform="matrix(-0.451172 0 0 0.451172 462 0)"
     d="M470.581 1253.8C473.038 1253.84 473.713 1253.4 475.345 1254.69L475.107 1257.42C472.569 1258.12 473.379 1258.31 471.457 1257.37L470.581 1253.8Z"
     id="path94" />
  <path
     fill="#401E05"
     transform="matrix(-0.451172 0 0 0.451172 462 0)"
     d="M204.888 137.652C217.82 138.713 295.887 224.726 295.635 237.419C294.983 239.681 293.596 240.337 291.655 241.796C282.144 240.75 246.037 197.244 237.33 188.319C228.521 179.289 216.81 166.819 208.284 157.04C202.181 150.039 198.354 145.545 204.888 137.652Z"
     id="path95" />
  <path
     fill="#401E05"
     transform="matrix(-0.451172 0 0 0.451172 462 0)"
     d="M62.6643 344.959C77.4249 344.578 175.449 382.984 178.467 394.444C178.045 396.807 176.818 397.735 175.166 399.537C170.921 399.921 143.411 389.674 138.965 387.448C127.062 381.486 62.6442 360.596 59.9857 351.41C60.0668 348.577 61.1517 347.39 62.6643 344.959Z"
     id="path96" />
  <path
     fill="#401E05"
     transform="matrix(-0.451172 0 0 0.451172 462 0)"
     d="M741.678 813.194C743.284 813.338 744.722 813.635 746.215 814.265C760.03 820.095 826.681 886.025 831.094 898.9C831.932 901.343 831 903.082 829.839 905.22C828.531 905.375 827.015 905.543 825.751 905.08C814.396 900.916 747.122 832.674 741.38 820.529C740.053 817.721 740.751 815.96 741.678 813.194Z"
     id="path97" />
  <path
     fill="#401E05"
     transform="matrix(-0.451172 0 0 0.451172 462 0)"
     d="M837.982 677.923C854.284 678.5 899.291 708.448 915.92 715.235C923.127 718.176 934.219 725.334 941.382 729.429C943.48 730.628 943.971 731.762 944.783 733.848C944.453 736.574 943.965 736.939 942.094 739.013C929.459 738.843 836.795 696.772 834.772 684.044C835.262 681.049 836.145 680.241 837.982 677.923Z"
     id="path98" />
  <path
     fill="#401E05"
     transform="matrix(-0.451172 0 0 0.451172 462 0)"
     d="M176.901 698.241C180.452 698.104 181.606 697.698 183.506 700.838C183.537 701.899 183.508 702.962 183.059 703.946C177.34 716.472 97.9783 763.431 81.9547 769.772C78.978 770.585 78.4499 769.724 76.5023 767.818C76.1362 766.114 75.9028 765.518 76.6534 763.854C80.1631 756.073 142.58 716.435 153.391 710.133C161.014 705.69 168.775 701.678 176.901 698.241Z"
     id="path99" />
  <path
     fill="#401E05"
     transform="matrix(-0.451172 0 0 0.451172 462 0)"
     d="M518.347 65.0387C521.185 66.08 522.883 66.5701 524.28 69.1493C525.472 76.1123 521.978 171.3 520.829 174.517C519.679 177.733 517.421 179.077 514.559 180.498C512.559 179.794 510.734 179.07 509.338 177.399C504.838 172.015 508.41 92.2679 509.955 81.1539C510.909 74.2887 512.752 69.3125 518.347 65.0387Z"
     id="path100" />
  <path
     fill="#401E05"
     transform="matrix(-0.451172 0 0 0.451172 462 0)"
     d="M273.267 830.179C276.57 829.998 277.661 830.058 280.013 832.19C280.2 832.955 280.366 833.598 280.244 834.391C278.873 843.308 214.937 920.652 205.046 929.525C202.551 930.344 201.818 929.984 199.975 928.614C194.458 914.953 259.902 840.564 273.267 830.179Z"
     id="path101" />
  <path
     fill="#401E05"
     transform="matrix(-0.451172 0 0 0.451172 462 0)"
     d="M925.382 310.552C929.361 310.542 930.541 310.615 932.663 314.087C933.908 327.655 850.489 365.024 836.627 368.348C834.131 368.459 831.653 368.077 829.811 366.314C829.508 365.177 829.241 364.758 829.666 363.651C833.148 354.556 910.366 317.312 925.382 310.552Z"
     id="path102" />
  <path
     fill="#401E05"
     transform="matrix(-0.451172 0 0 0.451172 462 0)"
     d="M910.321 520.923C922.596 520.371 983.975 518.09 989.578 526.521C990.089 529.31 990.305 528.234 988.96 530.513C983.923 534.393 955.866 534.441 948.129 534.716C935.378 535.203 876.249 538.517 871.196 529.123C871.593 524.948 873.643 523.643 877.648 522.954C888.191 521.14 899.665 521.216 910.321 520.923Z"
     id="path103" />
  <path
     fill="#401E05"
     transform="matrix(-0.451172 0 0 0.451172 462 0)"
     d="M757.552 130.238C759.657 130.396 759.577 130.314 761.231 131.573C768.926 143.377 721.657 214.309 711.2 223.513C708.381 222.911 707.106 222.643 705.921 220.006C707.08 207.026 746.108 140.191 757.552 130.238Z"
     id="path104" />
</svg>
