<?xml version="1.0" encoding="UTF-8" standalone="no"?>
<svg
   width="602"
   height="602"
   viewBox="0 0 602 602"
   version="1.1"
   id="svg55"
   sodipodi:docname="ChatGPT Image Sep 17, 2025, 04_01_07 PM.svg"
   inkscape:version="1.4.2 (ebf0e940, 2025-05-08)"
   xmlns:inkscape="http://www.inkscape.org/namespaces/inkscape"
   xmlns:sodipodi="http://sodipodi.sourceforge.net/DTD/sodipodi-0.dtd"
   xmlns="http://www.w3.org/2000/svg"
   xmlns:svg="http://www.w3.org/2000/svg">
  <sodipodi:namedview
     id="namedview55"
     pagecolor="#ffffff"
     bordercolor="#000000"
     borderopacity="0.25"
     inkscape:showpageshadow="2"
     inkscape:pageopacity="0.0"
     inkscape:pagecheckerboard="0"
     inkscape:deskcolor="#d1d1d1"
     inkscape:zoom="0.52581201"
     inkscape:cx="223.4639"
     inkscape:cy="298.5858"
     inkscape:window-width="1400"
     inkscape:window-height="715"
     inkscape:window-x="0"
     inkscape:window-y="38"
     inkscape:window-maximized="0"
     inkscape:current-layer="svg55" />
  <path
     fill="#271C0A"
     transform="matrix(0.587891 0 0 0.587891 0.00012207 0)"
     d="M769.564 61.1999C778.661 60.3113 787.019 61.6928 795.949 62.9319C824.232 66.8566 848.055 83.196 869.073 101.758C895.323 124.94 919.768 167.965 905.281 203.384C898.371 220.04 885.135 235.638 874.162 249.762C867.414 258.449 860.421 267.515 853.103 275.668C851.952 294.297 843.682 293.947 832.694 303.844C826.085 309.796 823.913 318.692 815.176 325.497C815.612 341.851 804.351 354.972 787.244 352.364C788.421 354.911 789.574 357.588 790.378 360.28C801.385 397.125 812.162 433.989 822.505 471.029C827.815 490.046 836.425 508.578 842.853 527.246C846.097 536.667 847.109 546.755 849.818 556.324C853.578 567.724 857.836 578.966 861.98 590.232C864.317 596.582 866.532 603.072 868.609 609.529C870.587 615.681 873.308 621.274 875.678 627.247C877.753 632.479 878.659 638.855 880.92 643.996C899.985 687.35 911.306 733.368 928.169 777.55C930.176 782.809 931.459 788.531 933.441 793.823C938.176 808.406 947.879 822.053 950.244 837.268C951.519 848.834 943.204 853.705 933.27 855.871C924.535 857.776 916.098 859.009 907.2 859.782C900.274 860.383 892.795 860.248 886.007 861.495C875.063 863.504 864.024 865.295 853.44 868.788C822.132 879.188 789.405 877.776 757.108 881.564C738.798 883.712 720.933 889.583 702.618 891.998C687.582 893.981 672.362 895.054 657.331 897.128C644.502 898.642 631.901 901.398 619.166 903.434C614.848 904.086 610.127 903.725 605.836 904.227C589.829 906.1 573.875 909.252 557.996 912.011C550.839 913.255 543.378 913.869 536.315 915.398C521.941 918.509 507.729 921.805 493.166 924.015C473.134 926.677 452.811 928.074 432.775 930.901C421.548 933.043 410.486 936.132 399.32 938.577C392.774 940.01 386.121 940.952 379.51 942.043C371.635 943.341 363.878 944.675 355.923 945.392C332.363 946.614 307.955 949.19 284.77 953.486C282.242 953.954 279.583 954.826 277.125 955.244C258.636 958.387 228.627 973.813 219.683 947.654C214.967 933.987 214.208 920.365 210.897 906.515C208.978 898.486 206.248 890.677 204.046 882.807L192.02 838.167C189.946 830.286 188.875 821.601 186.683 813.95C177.734 782.724 166.187 752.252 159.953 720.264C158.781 714.248 158.096 708.12 156.723 702.144C152.873 685.427 147.494 669.111 143.685 652.395C141.971 644.834 141.519 636.889 139.729 629.206C137.557 618.421 133.186 607.874 130.704 597.249C125.799 576.25 120.005 555.478 114.965 534.527C112.19 522.989 110.324 511.15 108.147 499.488C106.886 492.731 106.572 485.591 105.117 478.837C103.158 469.467 99.9738 460.264 98.0857 450.89L89.3534 406.859C88.1887 401.05 87.1822 394.63 85.8253 388.937C84.4948 383.355 81.0962 376.394 79.7877 370.716C78.1986 363.82 76.535 356.91 75.0136 349.964C73.1565 341.485 70.2421 332.224 69.5933 323.685C69.4008 320.871 70.2703 316.942 71.9379 314.591C79.4595 303.988 98.2892 306.659 109.435 305.692C121.024 304.686 131.341 304.008 142.83 303.537C150.004 303.242 156.692 303.807 163.798 303.057C191.653 299.776 219.306 295.491 247.032 291.531C267.033 288.675 288.61 287.473 308.793 284.879C323.882 282.94 339.09 281.296 354.176 279.179C362.402 278.091 370.719 278.236 378.971 277.678C416.54 275.139 453.398 267.741 490.512 261.861C495.205 261.117 500.267 260.304 504.973 259.862C512.492 259.156 520.139 259.167 527.645 258.174C537.455 256.332 547.069 254.199 556.835 251.92C563.518 250.36 587.53 248.301 592.138 245.002C596.894 241.596 608.46 226.67 611.751 221.54C611.849 212.526 611.622 210.384 616.256 202.509C621.657 193.329 632.004 193.5 636.58 187.26C642.271 179.5 649.71 169.921 654.983 161.946C658.028 157.343 657.827 151.714 663.584 145.475C671.327 137.082 677.324 138.325 685.262 132.315C689.268 128.491 692.787 123.108 696.429 119.04C718.561 94.3187 732.873 64.2812 769.564 61.1999Z"
     id="path2" />
  <path
     fill="#ECD7AC"
     transform="matrix(0.587891 0 0 0.587891 0.00012207 0)"
     d="M84.1096 324.051C94.5095 321.387 105.454 321.207 116.178 320.596L147.505 318.508C184.522 316.204 220.526 310.21 257.134 304.559C262.935 303.664 269.563 304.113 275.434 303.23C296.675 300.549 318.003 299.206 339.289 296.913C347.388 296.04 356.006 296.606 364.142 296.283C387.737 295.346 410.611 290.831 433.777 286.725L493.637 276.32C500.706 275.073 507.731 274.872 514.851 274.276C535.706 272.531 556.245 267.562 576.876 264.562C570.963 272.184 564.684 279.294 558.694 286.791L489.621 372.487L388.913 498.99C378.656 511.983 367.998 524.708 357.504 537.514C350.266 546.346 341.458 555.924 336.317 566.151C332.108 574.524 330.868 584.586 327.91 593.485C321.604 612.456 316.202 631.61 310.421 650.734C307.599 660.072 304.381 669.27 301.473 678.577C297.469 691.388 293.702 704.271 289.547 717.034C284.012 734.04 261.5 798.222 263.105 811C263.55 814.542 265.042 817.881 267.943 820.067C271.762 822.944 276.19 822.517 280.599 821.784C293.759 815.754 306.726 808.834 319.343 801.738C367.725 774.531 416.005 747.568 463.877 719.448L498.534 699.137C502.034 697.044 511.741 691.557 514.061 689.259C518.395 684.964 524.06 677.518 528.101 672.572L562.24 630.228L680.568 484.448L745.523 404.161L764.532 380.764C767.208 377.521 771.612 371.897 774.486 369.289C775.587 369.848 776.131 370.827 776.49 372.03C785.108 400.845 793.881 429.616 802.626 458.392C804.66 465.087 804.642 471.486 807.05 478.658C814.669 500.343 823.193 521.802 830.151 543.74C832.905 553.395 833.694 563.605 837.148 573.073C844.773 593.969 852.381 614.834 861.298 635.227C862.05 636.947 862.843 640.264 863.207 642.189C865.427 653.949 872.61 663.941 876.694 675.063C878.784 680.754 880.185 686.89 882.016 692.734L892.217 724.4C901.362 753.662 910.677 782.201 922.581 810.459C926.294 819.271 931.544 830.612 933.131 839.775C913.983 842.181 894.303 844.097 875.262 846.96C867.611 848.111 859.289 851.864 851.757 853.856C811.317 866.626 768.857 858.827 728.309 870.288C720.02 872.631 710 876.293 701.641 877.303C673.612 880.692 645.873 882.32 618.144 888.083C612.135 889.332 603.774 888.619 597.493 889.606C576.192 892.037 555.22 894.219 534.303 899.118C520.023 902.462 505.276 904.996 490.922 908.092C465.549 912.907 439.517 911.109 414.537 918.331C411.032 919.344 407.103 919.954 403.536 920.842C369.586 929.288 335 930.242 300.427 934.339C280.546 936.694 260.411 943.726 240.505 946.499C239.354 946.668 237.954 946.126 237.057 945.437C234.209 940.195 231.496 924.675 230.301 918.344C227.199 901.904 222.985 887.164 218.185 871.197C214.397 858.594 211.79 845.273 207.354 832.743C205.048 825.586 203.996 817.652 201.688 810.458C196.013 791.603 190.383 772.862 185.211 753.852C179.195 731.736 175.894 709.856 170.376 687.612L139.972 565.87C137.345 555.406 134.134 545.207 131.608 534.631C129.673 526.534 129.97 518.581 128.312 510.951L101.744 387.55C100.475 381.785 97.8858 377.07 96.3405 371.618C94.7112 365.871 93.7214 359.09 92.1088 353.326C89.3681 343.528 86.6331 333.924 84.1096 324.051Z"
     id="path3" />
  <path
     fill="#D2B071"
     transform="matrix(0.587891 0 0 0.587891 0.00012207 0)"
     d="M280.599 821.784C293.759 815.754 306.726 808.834 319.343 801.738C367.725 774.531 416.005 747.568 463.877 719.448L498.534 699.137C502.034 697.044 511.741 691.557 514.061 689.259C518.395 684.964 524.06 677.518 528.101 672.572L562.24 630.228L680.568 484.448L745.523 404.161L764.532 380.764C767.208 377.521 771.612 371.897 774.486 369.289C775.587 369.848 776.131 370.827 776.49 372.03C785.108 400.845 793.881 429.616 802.626 458.392C804.66 465.087 804.642 471.486 807.05 478.658C805.218 478.413 800.003 477.394 798.685 476.176C799.116 474.994 799.274 474.949 800.101 473.968C800.163 471.888 799.749 471.28 798.957 469.281L798.308 468.725C794.194 472.47 791.826 470.169 789.846 471.778C765.554 491.505 743.63 515.148 721.271 536.933L644.541 610.337C615.253 638.14 585.874 666.146 556.448 693.824C551.825 698.172 544.966 702.148 539.882 706.009C516.104 722.139 489.633 733.605 463.983 746.043L373.366 790.322L340.65 806.569C323.504 815.166 300.085 830.624 280.599 821.784Z"
     id="path4" />
  <path
     fill="#4E3A1B"
     transform="matrix(0.587891 0 0 0.587891 0.00012207 0)"
     d="M439.411 813.211C440.946 813.064 442.465 813.022 444.006 813.059C448.435 813.166 454.194 813.488 457.326 817.051C458.425 818.301 458.951 819.745 458.736 821.404C457.523 830.749 437.539 838.38 430.548 844.078L430 844.531C447.237 844.651 462.74 841.149 479.582 838.45C492.598 836.365 505.645 834.848 518.725 833.256C527.254 832.218 535.863 830.876 544.438 830.319C546.556 830.181 549.308 829.832 550.967 831.293L550.602 832.095C546.261 834.759 540.138 836.228 535.23 837.649C518.32 842.544 500.172 844.554 482.806 847.333C469.101 849.527 454.958 852.599 441.088 853.224C433.948 853.545 424.785 853.906 418.426 850.395C417.762 849.413 417.385 848.601 417.296 847.394C416.637 838.469 435.261 832.728 440.648 827.304C441.429 826.518 441.576 826.456 441.569 825.314C434.641 821.33 365.73 832.714 353.523 834.886C340.811 837.148 325.099 841.287 312.478 841.972C309.842 842.115 306.413 842.208 304.341 840.35C304.243 839.188 304.432 838.763 305.217 837.93C306.78 836.27 309.022 835.055 311.117 834.228C318.524 831.307 327.456 830.121 335.248 828.484C352.022 824.959 368.768 822.321 385.707 819.784C403.589 817.105 421.373 814.594 439.411 813.211Z"
     id="path5" />
  <path
     fill="#4E3A1B"
     transform="matrix(0.587891 0 0 0.587891 0.00012207 0)"
     d="M701.336 669.47C702.47 669.549 702.676 669.684 703.604 670.26L703.646 671.294C701.05 675.039 665 702.462 659.065 707.386C640.41 722.861 622.454 739.206 604.369 755.341C593.874 764.706 583.172 775.675 571.112 783.022L569.84 783.288L569.27 782.824C569.385 782.128 569.346 782.147 569.681 781.383C571.378 777.513 582.042 768.737 585.722 765.327C601.108 751.073 616.633 736.751 632.571 723.114C641.06 715.85 649.851 708.949 658.466 701.837C668.861 693.256 679.089 684.315 689.907 676.268C693.615 673.509 697.104 671.335 701.336 669.47Z"
     id="path6" />
  <path
     fill="#4E3A1B"
     transform="matrix(0.587891 0 0 0.587891 0.00012207 0)"
     d="M308.19 366.776C309.478 367.092 308.961 366.755 309.765 367.747C308.718 372.531 250.398 441.469 242.471 449.336L242.132 449.249C241.354 448.431 241.273 448.372 241.114 447.264C250.026 432.896 262.365 419.094 273.23 406.042C284.272 392.777 295.347 378.33 308.19 366.776Z"
     id="path7" />
  <path
     fill="#4E3A1B"
     transform="matrix(0.587891 0 0 0.587891 0.00012207 0)"
     d="M711.637 717.957C711.891 718.025 712.042 718.293 712.23 718.478C710.463 726.535 676.619 755.568 670.116 761.641C663.2 768.102 656.503 775.782 648.898 781.332C648.442 781.269 648.764 781.345 648.064 780.793C647.995 780.201 647.959 780.194 648.08 779.509C649.273 772.757 694.109 731.691 702.047 724.991C705.098 722.416 708.307 720.153 711.637 717.957Z"
     id="path8" />
  <path
     fill="#4E3A1B"
     transform="matrix(0.587891 0 0 0.587891 0.00012207 0)"
     d="M364.752 345.365L366.043 345.768L366.466 346.725C365.475 349.568 326.275 395.441 319.873 402.299C317.871 404.444 315.769 406.291 313.43 408.058L312.756 408.385C314.018 398.8 355.733 353.338 364.752 345.365Z"
     id="path9" />
  <path
     fill="#4E3A1B"
     transform="matrix(0.587891 0 0 0.587891 0.00012207 0)"
     d="M170.342 349.523L170.719 349.856C168.631 357.059 148.88 384.035 143.164 390.58C141.656 392.308 140.005 393.678 138.108 394.964L137.794 394.239C140.429 384.03 162.474 356.735 170.342 349.523Z"
     id="path10" />
  <path
     fill="#4E3A1B"
     transform="matrix(0.587891 0 0 0.587891 0.00012207 0)"
     d="M868.656 801.333C869.573 801.45 869.638 801.492 870.443 802.084C870.455 802.246 870.491 802.407 870.479 802.569C870.149 807.029 849.987 824.953 845.491 828.707C844.836 828.531 844.573 828.353 844.032 827.968C844.644 822.769 863.939 805.24 868.656 801.333Z"
     id="path11" />
  <path
     fill="#4E3A1B"
     transform="matrix(0.587891 0 0 0.587891 0.00012207 0)"
     d="M286.329 874.93L286.819 875.983C285.174 881.543 268.725 900.519 263.843 903.424C263.39 902.904 263.605 903.251 263.403 902.28C266.223 895.588 280.351 878.53 286.329 874.93Z"
     id="path12" />
  <path
     fill="#4E3A1B"
     transform="matrix(0.587891 0 0 0.587891 0.00012207 0)"
     d="M300.514 889.243C301.54 889.585 301.572 889.631 302.193 890.521C301.75 896.047 290.194 905.956 285.84 910.007L284.866 910.401C284.838 909.939 284.802 909.809 284.937 909.299C286.526 903.279 295.217 892.979 300.514 889.243Z"
     id="path13" />
  <path
     fill="#4E3A1B"
     transform="matrix(0.587891 0 0 0.587891 0.00012207 0)"
     d="M326.563 886.296C327.491 886.654 327.087 886.355 327.708 887.275C327.142 890.896 318.352 899.04 315.386 902.388C314.888 902.341 314.593 902.09 314.172 901.835L314.023 900.499C316.112 894.78 321.402 889.363 326.563 886.296Z"
     id="path14" />
  <path
     fill="#4E3A1B"
     transform="matrix(0.587891 0 0 0.587891 0.00012207 0)"
     d="M143.903 351.013L144.234 351.677C142.861 356.354 133.922 368.239 129.816 370.833C129.455 370.414 129.659 370.707 129.384 369.853C133.277 363.483 137.756 355.336 143.903 351.013Z"
     id="path15" />
  <path
     fill="#B76022"
     transform="matrix(0.587891 0 0 0.587891 0.00012207 0)"
     d="M664.593 242.049C688.142 254.377 705.507 263.082 725.469 281.315C715.165 293.666 704.108 305.408 693.892 317.867C687.491 325.673 681.472 333.786 675.121 341.631L548.108 501.246L493.227 569.832C482.855 582.776 472.272 595.477 462.384 608.805L458.021 607.574C442.029 605.328 422.472 615.014 412.67 612.865C405.186 611.223 407.2 598.913 407.305 593.333C407.375 589.631 407.324 585.948 406.879 582.268C406.23 576.898 404.715 572.468 401.866 567.857C425.624 539.314 448.497 510.068 471.661 481.041L581.252 343.924L624.463 290.238C637.483 274.007 650.534 257.385 664.593 242.049Z"
     id="path16" />
  <path
     fill="#984917"
     transform="matrix(0.587891 0 0 0.587891 0.00012207 0)"
     d="M730.281 286.241C743.908 294.308 769.649 325.278 774.666 340.03C766.018 350.177 757.886 360.715 749.547 371.117L713.837 415.44L590.581 568.048C564.188 600.836 538.436 634.356 511.003 666.279C499.248 659.605 488.803 665.051 477.052 662.032C475.201 661.556 472.562 660.513 471.698 658.623C471.055 657.218 471.197 654.808 471.179 653.252C471.017 639.437 476.298 625.571 468.582 612.958C474.53 604.556 481.619 596.67 488.016 588.584L537.057 527.05L667.893 361.765C688.362 336.341 710.153 311.945 730.281 286.241Z"
     id="path17" />
  <path
     fill="#271C0A"
     transform="matrix(0.587891 0 0 0.587891 0.00012207 0)"
     d="M663.556 416.368C664.44 416.879 664.254 416.86 664.541 417.759C661.919 428.35 595.301 505.769 584.656 516.616C582.847 518.459 580.987 520.004 578.857 521.463L578.485 521.382C578.501 521.09 578.486 520.794 578.534 520.505C579.329 515.696 657.712 420.22 663.556 416.368Z"
     id="path18" />
  <path
     fill="#271C0A"
     transform="matrix(0.587891 0 0 0.587891 0.00012207 0)"
     d="M556.882 563.728L558.277 564.242L558.593 565.213C555.43 575.826 518.22 619.903 508.403 630.258C506.094 632.694 503.527 634.853 500.945 636.991C500.282 636.837 500.701 636.983 499.809 636.3C499.794 636.093 499.759 635.887 499.765 635.679C499.807 633.988 500.755 632.528 501.643 631.145C507.777 621.582 515.757 612.781 522.863 603.901C530.206 594.724 537.64 585.652 545.243 576.688C548.915 572.358 552.549 567.389 556.882 563.728Z"
     id="path19" />
  <path
     fill="#271C0A"
     transform="matrix(0.587891 0 0 0.587891 0.00012207 0)"
     d="M738.504 326.37C739.199 326.809 739.092 326.962 739.338 327.709C739.077 328.689 738.78 329.437 738.276 330.325C734.968 336.15 730.516 341.351 726.371 346.586L711.203 365.781C706.976 371.028 702.715 377.33 697.859 381.932C696.831 382.905 695.679 383.303 694.339 383.668C694.132 383.502 693.903 383.362 693.72 383.171C693.348 382.783 693.065 382.297 693.19 381.761C693.781 379.222 698.028 374.784 699.66 372.564C706.883 362.746 729.084 331.756 738.504 326.37Z"
     id="path20" />
  <path
     fill="#271C0A"
     transform="matrix(0.587891 0 0 0.587891 0.00012207 0)"
     d="M690.886 405.308C691.872 406.159 691.988 406.203 692.279 407.458C689.914 417.163 664.181 446.931 655.466 453.649C654.341 453.038 654.58 453.114 654.186 452.019C656.112 442.903 683.807 414.186 690.886 405.308Z"
     id="path21" />
  <defs
     id="defs22">
    <linearGradient
       id="gradient_0"
       gradientUnits="userSpaceOnUse"
       x1="460.69937"
       y1="726.31659"
       x2="322.66537"
       y2="613.2644">
      <stop
         offset="0"
         stop-color="#BF7C3A"
         id="stop21" />
      <stop
         offset="1"
         stop-color="#E8B675"
         id="stop22" />
    </linearGradient>
  </defs>
  <path
     fill="url(#gradient_0)"
     transform="matrix(0.587891 0 0 0.587891 0.00012207 0)"
     d="M382.252 573.693C384.365 573.609 387.585 573.262 389.535 574.101C396.718 577.192 392.762 606.762 397.214 615.935C408.224 638.621 440.674 614.32 457.074 619.993C463.482 625.557 455.883 652.624 460.25 664.026C467.438 682.796 490.125 670.361 503.446 676.33L504.064 676.615L415.722 728.376C410.85 731.503 405.581 734.175 400.56 737.067C389.983 743.161 379.464 749.25 368.683 754.979C368.358 752.047 368.005 749.115 367.573 746.197C365.521 732.349 359.168 719.005 347.635 710.596C337.383 703.12 324.463 699.981 311.934 701.934C316.957 683.324 323.608 665.118 329.175 646.664C335.931 624.268 341.744 601.605 349.246 579.43C363.322 579.66 369.643 574.999 382.252 573.693Z"
     id="path22" />
  <path
     fill="#4E3A1B"
     transform="matrix(0.587891 0 0 0.587891 0.00012207 0)"
     d="M440.177 651.917C441.343 652.132 440.871 651.851 441.613 652.725C441.579 652.907 441.567 653.094 441.512 653.271C439.413 660.035 401.754 689.382 394.737 693.826L394.172 693.913L394.26 693.183C407.565 679.393 424.487 662.693 440.177 651.917Z"
     id="path23" />
  <path
     fill="#4E3A1B"
     transform="matrix(0.587891 0 0 0.587891 0.00012207 0)"
     d="M449.875 683.369C450.797 684.234 450.594 684.046 450.699 685.167C447.465 691.509 422.416 707.317 415.302 711.474L414.798 711.176C414.856 710.977 414.896 710.772 414.971 710.579C417.28 704.606 443.498 686.774 449.875 683.369Z"
     id="path24" />
  <path
     fill="#4E3A1B"
     transform="matrix(0.587891 0 0 0.587891 0.00012207 0)"
     d="M363.007 637.875C363.692 638.602 363.573 638.753 363.718 639.699C360.679 648.191 347.591 667.926 341.08 674.527L340.983 674.593L340.713 674.316C344.588 664.912 355.667 644.65 363.007 637.875Z"
     id="path25" />
  <path
     fill="#271C0A"
     transform="matrix(0.587891 0 0 0.587891 0.00012207 0)"
     d="M351.353 621.215C352.811 616.227 354.583 608.558 358.005 604.732L359 604.444C361.247 608.685 354.918 617.809 352.524 621.491L351.353 621.215Z"
     id="path26" />
  <path
     fill="#C78924"
     transform="matrix(0.587891 0 0 0.587891 0.00012207 0)"
     d="M350.508 683.537L351.22 683.531L351.815 684.418C351.788 685.274 351.716 685.776 351.38 686.586C351.286 686.814 351.176 687.035 351.074 687.26C351.444 688.49 351.533 688.581 352.53 689.399L353.397 689.209C353.466 688.496 353.539 688.015 353.778 687.329L354.292 688.805C353.918 690.247 353.843 690.303 352.686 691.251L351.364 690.798C350.698 691.078 350.247 691.154 349.541 691.246C348.162 690.366 346.915 689.533 345.728 688.404L345.943 687.427C347.212 686.095 349.23 685.69 350.947 685.14L350.872 684.341L350.019 683.848L350.508 683.537Z"
     id="path27" />
  <path
     fill="#C78924"
     transform="matrix(0.587891 0 0 0.587891 0.00012207 0)"
     d="M391.608 695.328L392.229 696.066C391.257 697.118 391.215 699.344 390.618 700.806C389.243 702 388.763 701.998 387.087 702.425C385.37 702.862 385.386 703.335 384.5 704.775C383.813 704.626 383.712 704.417 383.205 703.957C383.666 701.32 389.41 697.015 391.608 695.328Z"
     id="path28" />
  <path
     fill="#C78924"
     transform="matrix(0.587891 0 0 0.587891 0.00012207 0)"
     d="M430.089 639.613C432.492 640.408 435.116 640.698 437.588 641.312C436.956 641.574 436.38 641.882 435.778 642.204C435.565 642.984 435.474 643.415 434.973 644.066C434.308 643.525 433.913 643.323 433.139 643.005C432.894 643.83 432.572 644.56 432.2 645.336L431.115 645.602C431.376 644.796 431.652 643.998 431.929 643.198C431.669 641.765 431.26 641.076 430.38 639.97C430.285 639.85 430.186 639.732 430.089 639.613Z"
     id="path29" />
  <path
     fill="#C78924"
     transform="matrix(0.587891 0 0 0.587891 0.00012207 0)"
     d="M352.524 621.491C350.765 624.428 349.933 627.112 348.067 630.232C347.726 628.076 350.343 623.253 351.353 621.215L352.524 621.491Z"
     id="path30" />
  <path
     fill="#B76022"
     transform="matrix(0.587891 0 0 0.587891 0.00012207 0)"
     d="M706.678 136.528C711.065 129.568 719.554 119.509 724.924 113.032C738.441 96.7243 750.055 79.5463 773.303 78.1888C803.205 76.4426 827.03 90.664 848.928 108.813C869.78 125.72 887.847 148.426 891.224 176.107C891.728 180.241 891.278 191.034 889.434 194.823C880.842 212.471 865.972 230.492 854.003 246.178C852.367 248.323 849.256 251.623 847.424 253.365C845.879 247.893 843.522 244.579 840.895 239.643C831.226 221.477 813.348 200.701 797.407 187.385C775.794 168.108 734.794 142.909 706.678 136.528Z"
     id="path31" />
  <path
     fill="#984917"
     transform="matrix(0.587891 0 0 0.587891 0.00012207 0)"
     d="M848.928 108.813C869.78 125.72 887.847 148.426 891.224 176.107C891.728 180.241 891.278 191.034 889.434 194.823C880.842 212.471 865.972 230.492 854.003 246.178C852.367 248.323 849.256 251.623 847.424 253.365C845.879 247.893 843.522 244.579 840.895 239.643C831.226 221.477 813.348 200.701 797.407 187.385C801.208 185.089 799.178 180.84 802.261 178.83C805.203 176.912 809.969 169.757 813.102 169.984L813.455 170.886L813.996 170.717C814.945 167.675 833.966 145.769 837.671 141.8C841.211 138.007 846.211 136.84 848.944 130.822L847.244 127.926L846.284 127.101C847.036 123.53 846.075 121.99 845.678 118.291C845.377 115.487 847.692 111.803 848.928 108.813Z"
     id="path32" />
  <path
     fill="#271C0A"
     transform="matrix(0.587891 0 0 0.587891 0.00012207 0)"
     d="M847.244 127.926C859.742 127.866 881.388 161.99 879.718 174.441C879.472 176.277 879.984 176.749 878.948 178.297C877.11 177.099 863.185 144.054 857.329 141.091C856.816 140.831 849.606 131.856 848.944 130.822L847.244 127.926Z"
     id="path33" />
  <path
     fill="#271C0A"
     transform="matrix(0.587891 0 0 0.587891 0.00012207 0)"
     d="M840.889 145.121C854.05 146.323 865.539 177.877 864.804 189.978C859.591 185.177 852.455 157.072 843.655 150.973C842.555 150.21 840.893 146.686 840.889 145.121Z"
     id="path34" />
  <path
     fill="#271C0A"
     transform="matrix(0.587891 0 0 0.587891 0.00012207 0)"
     d="M828.688 160.24C832.027 160.871 834.66 164.447 836.68 167.006C840.615 171.988 850.729 186.95 849.966 193.219C848.943 193.282 848.766 193.353 847.961 192.734C844.319 189.932 837.158 175.28 834.422 170.77C832.842 168.167 830.929 165.713 829.444 163.066C828.927 162.144 828.812 161.273 828.688 160.24Z"
     id="path35" />
  <path
     fill="#271C0A"
     transform="matrix(0.587891 0 0 0.587891 0.00012207 0)"
     d="M820.761 173.267C822.46 173.798 823.388 174.549 824.592 175.859C829.71 181.423 838.403 194.017 837.928 201.892C836.992 201.506 836.46 201.206 835.839 200.375C831.877 195.077 819.925 179.692 820.761 173.267Z"
     id="path36" />
  <path
     fill="#271C0A"
     transform="matrix(0.587891 0 0 0.587891 0.00012207 0)"
     d="M770.98 87.4122C777.135 87.2689 803.558 92.1471 803.318 99.7966C798.766 99.222 772.448 91.8891 770.6 88.9647L770.98 87.4122Z"
     id="path37" />
  <path
     fill="#271C0A"
     transform="matrix(0.587891 0 0 0.587891 0.00012207 0)"
     d="M757.897 102.119C762.736 101.763 773.751 103.212 776.936 107.581C777.756 108.706 776.934 109.759 776.434 110.818C772.298 110.757 758.89 107.08 757.104 103.283L757.897 102.119Z"
     id="path38" />
  <path
     fill="#271C0A"
     transform="matrix(0.587891 0 0 0.587891 0.00012207 0)"
     d="M736.652 127.853C740.801 128.126 754.497 133.055 756.331 136.708L755.818 137.541C751.477 136.745 737.23 133.598 735.666 129.543L736.652 127.853Z"
     id="path39" />
  <path
     fill="#B76022"
     transform="matrix(0.587891 0 0 0.587891 0.00012207 0)"
     d="M626.224 229.306C636.258 229.537 647.728 234.501 656.868 238.52C648.031 249.833 638.557 260.687 629.387 271.734C619.882 283.186 610.599 294.907 601.301 306.534L483.671 454.082L428.798 522.371C418.545 535.062 404.98 550.022 396.363 563.511C392.048 562.147 387.847 561.698 383.346 561.468C373.367 561.637 364.372 565.427 354.558 566.247C362.601 558.564 372.783 544.249 380.022 535.168L429.489 473.654L536.693 341.141L595.719 267.414C605.871 254.677 616.406 242.319 626.224 229.306Z"
     id="path40" />
  <defs
     id="defs41">
    <linearGradient
       id="gradient_1"
       gradientUnits="userSpaceOnUse"
       x1="333.34668"
       y1="783.48914"
       x2="286.93408"
       y2="739.89606">
      <stop
         offset="0"
         stop-color="#4F4738"
         id="stop40" />
      <stop
         offset="1"
         stop-color="#70685B"
         id="stop41" />
    </linearGradient>
  </defs>
  <path
     fill="url(#gradient_1)"
     transform="matrix(0.587891 0 0 0.587891 0.00012207 0)"
     d="M318.819 714.685C321.822 714.009 325.615 714.49 328.525 715.289C337.213 717.674 344.512 724.325 348.965 731.995C352.917 738.804 357.471 753.201 355.056 760.821C354.888 761.352 354.551 762.204 354.227 762.639C352.921 764.398 311.318 787.924 305.207 791.345C297.446 796.244 288.82 800.381 280.673 804.624C286.664 774.441 298.089 745.684 307.505 716.477C311.208 715.667 315.068 715.253 318.819 714.685Z"
     id="path41" />
  <path
     fill="#271C0A"
     transform="matrix(0.587891 0 0 0.587891 0.00012207 0)"
     d="M330.431 750.251C331.024 750.433 331.522 750.549 332.063 750.898C333.972 752.132 336.451 756.039 337.143 758.185C334.851 757.577 332.371 756.244 330.955 754.291C329.813 752.716 330.095 751.959 330.431 750.251Z"
     id="path42" />
  <path
     fill="#271C0A"
     transform="matrix(0.587891 0 0 0.587891 0.00012207 0)"
     d="M318.295 756.882C320.868 758.574 322.928 760.586 323.756 763.594C322.749 763.605 322.168 763.485 321.213 763.228C319.015 761.424 318.69 759.615 318.295 756.882Z"
     id="path43" />
  <path
     fill="#D2B071"
     transform="matrix(0.587891 0 0 0.587891 0.00012207 0)"
     d="M666.501 172.512C677.111 172.273 681.637 172.791 691.976 175.745C709.26 181.937 726.472 190.412 742.138 199.997C750.539 205.137 758.462 211.64 766.383 217.536C764.227 221.379 765.429 219.929 762.392 222.737C756.678 228.019 752.731 235.326 747.629 241.253C738.493 234.297 726.251 224.262 716.451 218.623C704.448 211.717 687.527 204.762 674.548 199.329C666.662 197.282 660.43 194.172 651.677 192.436C655.827 186.435 661.606 177.713 666.501 172.512Z"
     id="path44" />
  <path
     fill="#C78924"
     transform="matrix(0.587891 0 0 0.587891 0.00012207 0)"
     d="M666.501 172.512C677.111 172.273 681.637 172.791 691.976 175.745C687.582 183.077 676.663 192.609 674.548 199.329C666.662 197.282 660.43 194.172 651.677 192.436C655.827 186.435 661.606 177.713 666.501 172.512Z"
     id="path45" />
  <path
     fill="#271C0A"
     transform="matrix(0.587891 0 0 0.587891 0.00012207 0)"
     d="M686.8 190.094C686.987 190.125 687.175 190.151 687.361 190.187C691.456 190.974 696.343 192.978 698.81 196.486L698.439 197.543C694.734 197.362 689.077 194.962 686.262 192.577C685.928 191.292 686.139 191.272 686.8 190.094Z"
     id="path46" />
  <path
     fill="#C78924"
     transform="matrix(0.587891 0 0 0.587891 0.00012207 0)"
     d="M766.383 217.536C782.145 229.435 801.02 250.695 812.058 267.344C814.884 271.606 820.701 286.823 822.395 292.056C818.135 297.639 812.92 304.881 808.458 310.117C794.464 285.896 769.777 258.311 747.629 241.253C752.731 235.326 756.678 228.019 762.392 222.737C765.429 219.929 764.227 221.379 766.383 217.536Z"
     id="path47" />
  <path
     fill="#271C0A"
     transform="matrix(0.587891 0 0 0.587891 0.00012207 0)"
     d="M794.335 266.886C798.003 269.567 801.679 272.85 804.341 276.554C806.588 279.68 807.739 281.922 807.187 285.755L806.464 285.795C801.175 282.628 796.523 272.489 794.335 266.886Z"
     id="path48" />
  <path
     fill="#271C0A"
     transform="matrix(0.587891 0 0 0.587891 0.00012207 0)"
     d="M769.147 243.329C773.945 245.068 782.22 251.522 784.711 256C779.985 255.219 774.771 251.997 771.536 248.527C769.959 246.835 769.037 245.688 769.147 243.329Z"
     id="path49" />
  <path
     fill="#D2B071"
     transform="matrix(0.587891 0 0 0.587891 0.00012207 0)"
     d="M664.446 207.563C676.949 211.89 700.96 223.027 711.913 229.837C718.787 234.111 735.564 246.746 742.163 252.124C740.974 254.596 734.095 265.7 732.365 267.578C709.148 246.977 682.097 233.842 653.263 223.097C656.694 216.066 661.643 213.154 664.446 207.563Z"
     id="path50" />
  <path
     fill="#C78924"
     transform="matrix(0.587891 0 0 0.587891 0.00012207 0)"
     d="M742.163 252.124C757.176 264.852 798.209 305.144 800.167 324.401C800.514 327.815 800.074 331.378 797.748 334.052C795.754 336.344 793.103 337.01 790.254 337.613C780.096 314.023 766.291 298.169 747.753 280.601C743.005 276.101 737.052 272.13 732.365 267.578C734.095 265.7 740.974 254.596 742.163 252.124Z"
     id="path51" />
  <path
     fill="#C78924"
     transform="matrix(0.587891 0 0 0.587891 0.00012207 0)"
     d="M782.96 195.14C799.128 209.55 838.274 249.799 839.2 271.682C839.35 275.215 838.442 279.1 835.928 281.714C834.853 282.832 833.599 283.725 832.306 284.571C829.905 279.406 825.565 267.262 823.083 263.499C811.788 246.37 789.048 221.395 773.652 208.5C777.439 203.794 777.485 199.879 782.96 195.14Z"
     id="path52" />
  <path
     fill="#D2B071"
     transform="matrix(0.587891 0 0 0.587891 0.00012207 0)"
     d="M706.879 150.621C733.702 160.096 760.746 177.42 782.96 195.14C777.485 199.879 777.439 203.794 773.652 208.5C745.287 186.345 731.613 178.635 698.477 165.645C701.129 161.355 705.763 155.336 706.879 150.621Z"
     id="path53" />
  <path
     fill="#C78924"
     transform="matrix(0.587891 0 0 0.587891 0.00012207 0)"
     d="M625.617 216.186C628.024 211.227 630.226 206.537 635.611 204.086C645.767 199.462 654.945 206.356 664.446 207.563C661.643 213.154 656.694 216.066 653.263 223.097C642.692 219.692 636.662 217.783 625.617 216.186Z"
     id="path54" />
  <path
     fill="#C78924"
     transform="matrix(0.587891 0 0 0.587891 0.00012207 0)"
     d="M670.539 160.465C679.484 144.088 691.298 146.268 706.879 150.621C705.763 155.336 701.129 161.355 698.477 165.645C685.38 162.291 685.329 160.456 670.539 160.465Z"
     id="path55" />
</svg>
